<svg width="90" height="55" viewBox="0 0 90 55" fill="none" xmlns="http://www.w3.org/2000/svg">
<path d="M90 52.5294H14.1506H4C2.89543 52.5294 2 51.634 2 50.5294V0M6.78661 48.8039L23.0398 35.0437C23.9785 34.249 25.4054 34.4819 26.0427 35.5339L29.991 42.0519C30.7971 43.3827 32.7473 43.3238 33.4716 41.9468L43.4126 23.0493C43.7584 22.392 44.4399 21.9804 45.1826 21.9804H54.4545C55.0468 21.9804 55.6087 21.7178 55.9887 21.2634L65.9311 9.37462C66.7548 8.38956 68.2802 8.42499 69.0574 9.44723L69.9024 10.5587C70.612 11.492 71.9685 11.6176 72.8373 10.8305L82 2.52942" stroke="black" stroke-opacity="0.8" stroke-width="3"/>
</svg>
